<svg xmlns="http://www.w3.org/2000/svg" width="512" height="512" viewBox="0 0 512 512">
  <circle cx="256.00" cy="256.00" r="256.00" fill="#111217"/>
  <g transform="translate(0.0000 0.0000) scale(1.127753)">
    <path d="M 146.00 360.50 L 138.00 358.50 L 134.50 356.00 L 131.50 351.00 L 130.50 346.00 L 130.50 299.00 L 115.00 297.50 L 101.00 290.50 L 88.50 277.00 L 82.50 262.00 L 82.50 257.00 L 81.50 256.00 L 81.50 157.00 L 84.50 145.00 L 91.50 133.00 L 99.00 125.50 L 105.00 121.50 L 111.00 118.50 L 122.00 115.50 L 331.00 115.50 L 342.00 118.50 L 356.00 127.50 L 364.50 138.00 L 370.50 154.00 L 370.50 261.00 L 365.50 275.00 L 354.00 288.50 L 340.00 296.50 L 332.00 298.50 L 279.00 298.50 L 278.50 282.00 L 328.00 281.50 L 332.00 280.50 L 341.00 276.50 L 348.50 269.00 L 352.50 261.00 L 353.50 257.00 L 353.50 158.00 L 349.50 147.00 L 342.00 138.50 L 333.00 133.50 L 328.00 132.50 L 124.00 132.50 L 115.00 135.50 L 104.50 145.00 L 99.50 155.00 L 99.50 259.00 L 103.50 268.00 L 113.00 277.50 L 124.00 281.50 L 143.00 281.50 L 147.50 286.00 L 148.50 288.00 L 149.00 338.50 L 217.00 281.50 L 249.50 282.00 L 249.00 298.50 L 224.00 298.50 L 153.00 358.50 L 146.00 360.50 Z" fill="#FFFFFF"/>
    <path d="M 167.00 222.50 L 159.00 220.50 L 153.50 215.00 L 151.50 210.00 L 151.50 203.00 L 155.50 196.00 L 160.00 192.50 L 172.00 191.50 L 179.50 197.00 L 182.50 204.00 L 182.50 210.00 L 180.50 215.00 L 175.00 220.50 L 167.00 222.50 Z" fill="#FFFFFF"/>
    <path d="M 236.00 221.50 L 225.00 221.50 L 221.00 219.50 L 215.50 212.00 L 214.50 207.00 L 217.50 198.00 L 222.00 193.50 L 226.00 191.50 L 235.00 191.50 L 239.00 193.50 L 243.50 198.00 L 245.50 202.00 L 244.50 214.00 L 241.00 218.50 L 236.00 221.50 Z" fill="#FFFFFF"/>
    <path d="M 294.00 222.50 L 286.00 220.50 L 280.50 215.00 L 278.50 210.00 L 279.50 200.00 L 284.00 194.50 L 289.00 191.50 L 301.00 192.50 L 305.50 196.00 L 309.50 204.00 L 309.50 210.00 L 307.50 215.00 L 302.00 220.50 L 294.00 222.50 Z" fill="#FFFFFF"/>
  </g>
</svg>
